<svg width="496" height="92" viewBox="0 0 496 92" fill="none" xmlns="http://www.w3.org/2000/svg">
<rect width="496" height="92" fill="black"/>
<path d="M454.616 48.5947C455.195 48.5384 455.986 48.6318 456.544 48.78C457.932 49.1575 459.138 50.0246 459.938 51.2213C460.032 51.3602 460.128 51.534 460.214 51.6817C460.033 51.5899 459.837 51.4527 459.653 51.3518C457.883 50.3811 455.566 50.0655 453.858 51.3548C452.814 52.1426 451.959 53.5579 451.733 54.8571C451.557 55.8697 451.846 56.8743 452.383 57.7322C452.507 57.9315 452.665 58.1397 452.805 58.3297C453.185 58.8207 453.66 59.3019 454.108 59.7326C454.335 59.9513 454.628 60.2362 454.873 60.4312C453.834 60.362 453.163 60.2346 452.226 59.7388C451.811 59.522 451.425 59.2557 451.074 58.9458C449.886 57.8965 449.17 56.4127 449.088 54.8291C448.999 53.2765 449.526 51.7516 450.555 50.5856C451.588 49.4058 453.051 48.6888 454.616 48.5947Z" fill="#BF292E"/>
<path d="M456.553 52.4904C456.99 52.4195 457.664 52.5736 458.073 52.7353C459.411 53.2648 460.289 54.0594 460.858 55.3886C460.798 55.7054 460.757 55.9268 460.666 56.2379C460.217 57.7074 459.214 58.9444 457.87 59.6868C457.709 59.776 457.544 59.8583 457.375 59.9334C457.218 59.7492 456.979 59.5492 456.794 59.3681C455.747 58.3393 453.979 57.0878 453.814 55.5132C453.735 54.7596 454.181 54.0079 454.654 53.4686C455.162 52.8896 455.784 52.5465 456.553 52.4904Z" fill="#BF292E"/>
<path d="M181.271 25.7686C192.262 25.7686 200.321 34.1539 200.321 45.1348C200.321 52.0986 197.458 57.4149 192.102 60.5254H202.849V64.501H181.008C171.244 64.501 162.168 56.7642 162.168 45.6611C162.168 39.7849 164.15 34.8094 167.537 31.3018C170.925 27.7936 175.705 25.7686 181.271 25.7686ZM181.218 29.7441C172.894 29.7444 166.775 36.4089 166.775 45.1348C166.775 53.6541 172.687 60.5252 181.271 60.5254C189.853 60.5254 195.714 53.6555 195.714 45.1348C195.714 36.5632 189.802 29.7441 181.218 29.7441Z" fill="white" stroke="white" stroke-width="0.5"/>
<path d="M123.255 64.2506H118.719V26.0186H124.443L146.583 57.7706H146.691V26.0186H151.227V64.2506H145.503L123.363 32.4986H123.255V64.2506Z" fill="white"/>
<path d="M77.498 64.2506V26.0186L104.528 26.0186V30.2306H82.034V42.2186H103.232V46.4306H82.034V60.0386H105.5V64.2506H77.498Z" fill="white"/>
<path d="M409.946 62.0107H404.816L421.664 27.2646H425.93L442.184 62.0107H436.892L433.004 53.4714H413.888L409.946 62.0107ZM415.67 49.6435H431.276L423.716 32.5649H423.608L415.67 49.6435Z" fill="white"/>
<path d="M259.166 64.2506V26.0186L286.196 26.0186V30.2306H263.702V42.2186H284.9V46.4306H263.702V60.0386H287.168V64.2506H259.166Z" fill="white"/>
<path d="M305.306 64.2506H300.77V26.0186H306.494L328.634 57.7706H328.742V26.0186H333.278V64.2506H327.554L305.414 32.4986H305.306V64.2506Z" fill="white"/>
<path d="M213.055 50.5383V26.7783H217.97V49.7823C217.97 57.3963 221.599 61.7703 228.68 61.7703C235.761 61.7703 239.389 57.3423 239.389 49.9983V26.7783H244.305V50.5923C244.305 59.9343 238.921 65.9823 228.68 65.9823C218.439 65.9823 213.055 59.8803 213.055 50.5383Z" fill="white"/>
<path d="M345.686 30.9903V26.7783H375.494V30.9903H362.858V64.0103H358.322V30.9903H345.686Z" fill="white"/>
<path d="M388.831 26.8359V64.0107H393.367V26.8359H388.831Z" fill="white"/>
<path d="M47.0839 26.2955C49.9019 26.146 53.4934 26.4826 56.2021 27.2281L56.9228 27.4918L57.2402 27.6236C57.6406 27.8203 58.1662 28.005 58.5957 28.1744C60.2454 28.8251 61.6786 29.513 62.9638 30.773C62.1316 32.0349 61.8458 32.9259 60.7041 34.0855C59.7535 33.647 58.8667 33.1267 57.8935 32.7281C55.6529 31.8106 53.3641 31.1649 50.9345 31.15C49.0253 31.1383 47.0645 31.1383 45.2783 31.6842L45.4111 31.6539C39.2072 34.3179 40.9676 38.5482 42.8437 40.5055C43.2067 40.7652 43.6173 40.9736 44.0781 41.1539C46.1016 42.0059 48.9761 42.5707 51.1601 42.9635C53.9842 43.4713 56.6729 43.8716 59.2539 45.2594C60.0693 45.6978 60.6854 46.0107 61.2734 46.4596C62.2808 47.0518 63.1476 47.9694 63.7685 49.108C63.903 49.315 64.0187 49.5405 64.1025 49.7984C64.775 51.3736 65.0036 53.2807 64.5615 55.2935C64.5564 55.3586 64.5546 55.4216 64.5478 55.481C64.4695 56.1678 64.307 56.6507 64.0918 57.3062C63.8597 57.9759 63.7012 58.3324 63.2793 58.8834C62.5917 59.7811 61.949 60.517 61.2802 61.1295C61.1343 61.2817 60.9843 61.4347 60.8281 61.5855L60.833 61.5152C59.5612 62.5534 58.1363 63.1896 56.0712 63.6422C55.3051 63.792 54.4141 64.0689 53.6474 64.1236C48.6182 64.4832 42.8931 64.2049 38.4316 61.6256C37.4701 61.1258 35.2751 59.9482 35.1435 58.7398C35.0925 58.2604 37.1426 55.4755 37.8164 55.4332C38.112 55.5624 38.2445 55.8799 38.4902 56.0631C41.3357 58.1848 44.7279 59.3264 48.2177 59.6998C51.165 59.8362 56.3382 59.0819 58.6093 55.4176L58.5898 55.4205C58.6222 55.3814 58.6527 55.3406 58.6816 55.2994C58.7537 55.1778 58.8211 55.0523 58.8867 54.9244C59.4679 53.5679 58.7544 51.5522 58.3886 50.9557L58.4023 50.9547C56.2574 48.7463 51.3514 48.0938 48.9785 47.608C46.8466 47.1716 44.6062 46.4829 42.4941 45.9127C40.5298 45.3824 37.9994 43.5477 36.9091 41.8824C35.6305 39.885 35.3705 36.5072 35.8877 34.2008C36.2941 31.9725 37.7791 30.757 39.3281 29.3629C39.846 28.8967 40.3248 28.6063 40.791 28.3834C42.5107 27.3369 44.3908 26.7587 45.9502 26.5133C46.4428 26.3959 46.8705 26.3069 47.0839 26.2955Z" fill="white"/>
</svg>
